<svg width="1200" height="1600" viewBox="0 0 1200 1600" xmlns="http://www.w3.org/2000/svg" role="img" aria-label="Обложка альбома Корень Нирна">
  <defs>
    <linearGradient id="bg" x1="0" y1="0" x2="0" y2="1">
      <stop offset="0%" stop-color="#111319" />
      <stop offset="70%" stop-color="#0b0c10" />
    </linearGradient>
    <pattern id="blinds" width="18" height="8" patternUnits="userSpaceOnUse">
      <rect x="0" y="0" width="18" height="3" fill="#dfe3ea" />
    </pattern>
    <filter id="shadow" x="-20%" y="-20%" width="140%" height="140%">
      <feGaussianBlur in="SourceAlpha" stdDeviation="12" result="blur" />
      <feOffset in="blur" dx="0" dy="10" result="offset" />
      <feMerge>
        <feMergeNode in="offset" />
        <feMergeNode in="SourceGraphic" />
      </feMerge>
    </filter>
  </defs>

  <rect width="1200" height="1600" fill="url(#bg)" />
  <rect x="120" y="120" width="960" height="900" fill="url(#blinds)" opacity="0.08" />

  <g filter="url(#shadow)">
    <rect x="230" y="360" width="640" height="900" rx="18" fill="#f9f9fb" />
    <rect x="230" y="360" width="640" height="900" rx="18" fill="none" stroke="#d2d7dd" stroke-width="3" />
    <path d="M560 1120c0-64 12-120 36-168-56-4-96-34-128-90-22-38-34-86-34-144 0-46 10-86 28-122 26-52 71-92 126-122l28-14 18 32c32 56 48 112 48 168 0 60-20 120-60 180 32 18 52 44 60 76 10 38 2 72-22 102-26 32-64 52-112 62-18 4-36 6-54 6-6 0-12 0-18-2z" fill="none" stroke="#0f141a" stroke-width="12" stroke-linecap="round" stroke-linejoin="round" />
    <path d="M560 770c-18-10-32-24-42-44-8-16-12-34-12-54 0-14 2-28 6-40l4-12-16-10" fill="none" stroke="#0f141a" stroke-width="12" stroke-linecap="round" stroke-linejoin="round" />
    <path d="M618 680c18-12 32-26 42-44 8-18 12-38 12-60 0-16-2-30-6-44l-4-14 24-16" fill="none" stroke="#0f141a" stroke-width="12" stroke-linecap="round" stroke-linejoin="round" />
    <path d="M592 996c18 0 36-6 52-16 14-10 26-24 34-40 6-12 8-26 8-42 0-18-4-36-12-52l-12-26 22-18" fill="none" stroke="#0f141a" stroke-width="12" stroke-linecap="round" stroke-linejoin="round" />
    <path d="M524 960c-22-2-40-12-54-30-12-16-18-34-18-56 0-10 2-20 4-30l4-18-32-24" fill="none" stroke="#0f141a" stroke-width="12" stroke-linecap="round" stroke-linejoin="round" />
    <text x="350" y="1200" font-family="'Georgia', 'Times New Roman', serif" font-size="90" fill="#0f141a">корень Нирна</text>
  </g>

  <text x="240" y="260" font-family="'Manrope', 'Arial', sans-serif" font-size="120" font-weight="700" fill="#ff4f4f">Трансжиры</text>
  <text x="240" y="380" font-family="'Manrope', 'Arial', sans-serif" font-size="120" font-weight="700" fill="#ff4f4f">Трансжиры</text>
</svg>
